{
	"asset":{
		"generator":"Khronos glTF Blender I/O v5.0.21",
		"version":"2.0"
	},
	"scene":0,
	"scenes":[
		{
			"name":"Scene",
			"nodes":[
				0,
				1,
				2,
				3,
				4,
				5,
				6,
				7,
				8
			]
		}
	],
	"nodes":[
		{
			"mesh":0,
			"name":"Main Body"
		},
		{
			"mesh":1,
			"name":"Inset"
		},
		{
			"mesh":2,
			"name":"Screen"
		},
		{
			"mesh":3,
			"name":"Text",
			"rotation":[
				0.5,
				0.5,
				-0.5,
				0.5
			],
			"scale":[
				0.16508668661117554,
				0.1455359011888504,
				0.1455359011888504
			],
			"translation":[
				0.3000001013278961,
				-1.855208396911621,
				-0.8667187690734863
			]
		},
		{
			"mesh":4,
			"name":"Lens",
			"rotation":[
				0,
				0,
				-0.7071068286895752,
				0.7071068286895752
			],
			"translation":[
				0.2999999225139618,
				1.7447916269302368,
				0.125
			]
		},
		{
			"mesh":5,
			"name":"Sphere",
			"rotation":[
				0,
				0,
				-0.7071068286895752,
				0.7071068286895752
			],
			"translation":[
				0.2999999225139618,
				1.6947916746139526,
				-0.125
			]
		},
		{
			"mesh":6,
			"name":"PowerLed"
		},
		{
			"mesh":7,
			"name":"Cylinder",
			"translation":[
				-0.24999991059303284,
				-2.105208396911621,
				0.9555553197860718
			]
		},
		{
			"mesh":8,
			"name":"PowerButton"
		}
	],
	"materials":[
		{
			"doubleSided":true,
			"name":"MainBody",
			"normalTexture":{
				"index":0
			},
			"pbrMetallicRoughness":{
				"baseColorTexture":{
					"index":1
				},
				"metallicFactor":0
			}
		},
		{
			"doubleSided":true,
			"name":"Inset",
			"pbrMetallicRoughness":{
				"baseColorTexture":{
					"index":2
				},
				"metallicFactor":0
			}
		},
		{
			"doubleSided":true,
			"name":"Screen",
			"pbrMetallicRoughness":{
				"baseColorFactor":[
					0,
					0,
					0,
					1
				],
				"metallicFactor":0
			}
		}
	],
	"meshes":[
		{
			"name":"Plane",
			"primitives":[
				{
					"attributes":{
						"POSITION":0,
						"NORMAL":1,
						"TEXCOORD_0":2
					},
					"indices":3,
					"material":0
				}
			]
		},
		{
			"name":"Plane.001",
			"primitives":[
				{
					"attributes":{
						"POSITION":4,
						"NORMAL":5,
						"TEXCOORD_0":6
					},
					"indices":7,
					"material":1
				}
			]
		},
		{
			"name":"Plane.002",
			"primitives":[
				{
					"attributes":{
						"POSITION":8,
						"NORMAL":9,
						"TEXCOORD_0":10
					},
					"indices":11,
					"material":2
				}
			]
		},
		{
			"name":"Text.001",
			"primitives":[
				{
					"attributes":{
						"POSITION":12,
						"NORMAL":13,
						"TEXCOORD_0":14
					},
					"indices":15
				}
			]
		},
		{
			"name":"Sphere.002",
			"primitives":[
				{
					"attributes":{
						"POSITION":16,
						"NORMAL":17,
						"TEXCOORD_0":18
					},
					"indices":19,
					"material":2
				}
			]
		},
		{
			"name":"Sphere.004",
			"primitives":[
				{
					"attributes":{
						"POSITION":20,
						"NORMAL":21,
						"TEXCOORD_0":22
					},
					"indices":23,
					"material":2
				}
			]
		},
		{
			"name":"Plane.003",
			"primitives":[
				{
					"attributes":{
						"POSITION":24,
						"NORMAL":25,
						"TEXCOORD_0":26
					},
					"indices":27,
					"material":2
				}
			]
		},
		{
			"name":"Cylinder",
			"primitives":[
				{
					"attributes":{
						"POSITION":28,
						"NORMAL":29,
						"TEXCOORD_0":30
					},
					"indices":31,
					"material":0
				}
			]
		},
		{
			"name":"Plane.004",
			"primitives":[
				{
					"attributes":{
						"POSITION":32,
						"NORMAL":33,
						"TEXCOORD_0":34
					},
					"indices":35,
					"material":0
				}
			]
		}
	],
	"textures":[
		{
			"sampler":0,
			"source":0
		},
		{
			"sampler":0,
			"source":0
		},
		{
			"sampler":0,
			"source":1
		}
	],
	"images":[
		{
			"mimeType":"image/png",
			"name":"concrete5",
			"uri":"concrete5.png"
		},
		{
			"mimeType":"image/png",
			"name":"metal3",
			"uri":"metal3.png"
		}
	],
	"accessors":[
		{
			"bufferView":0,
			"componentType":5126,
			"count":471,
			"max":[
				0.3500000834465027,
				1.9947917461395264,
				2.1334376335144043
			],
			"min":[
				-1.9500000476837158,
				-2.555208444595337,
				-2.1334376335144043
			],
			"type":"VEC3"
		},
		{
			"bufferView":1,
			"componentType":5126,
			"count":471,
			"type":"VEC3"
		},
		{
			"bufferView":2,
			"componentType":5126,
			"count":471,
			"type":"VEC2"
		},
		{
			"bufferView":3,
			"componentType":5123,
			"count":1062,
			"type":"SCALAR"
		},
		{
			"bufferView":4,
			"componentType":5126,
			"count":399,
			"max":[
				0.10015276819467545,
				1.2999999523162842,
				1.433333396911621
			],
			"min":[
				-7.549790126404332e-08,
				-1.5,
				-1.433333396911621
			],
			"type":"VEC3"
		},
		{
			"bufferView":5,
			"componentType":5126,
			"count":399,
			"type":"VEC3"
		},
		{
			"bufferView":6,
			"componentType":5126,
			"count":399,
			"type":"VEC2"
		},
		{
			"bufferView":7,
			"componentType":5123,
			"count":621,
			"type":"SCALAR"
		},
		{
			"bufferView":8,
			"componentType":5126,
			"count":4,
			"max":[
				7.549790126404332e-08,
				1,
				1.3333333730697632
			],
			"min":[
				-7.549790126404332e-08,
				-1,
				-1.3333333730697632
			],
			"type":"VEC3"
		},
		{
			"bufferView":9,
			"componentType":5126,
			"count":4,
			"type":"VEC3"
		},
		{
			"bufferView":10,
			"componentType":5126,
			"count":4,
			"type":"VEC2"
		},
		{
			"bufferView":11,
			"componentType":5123,
			"count":6,
			"type":"SCALAR"
		},
		{
			"bufferView":12,
			"componentType":5126,
			"count":457,
			"max":[
				5.23799991607666,
				0,
				0.009000000543892384
			],
			"min":[
				0.04800000041723251,
				0,
				-0.6910000443458557
			],
			"type":"VEC3"
		},
		{
			"bufferView":13,
			"componentType":5126,
			"count":457,
			"type":"VEC3"
		},
		{
			"bufferView":14,
			"componentType":5126,
			"count":457,
			"type":"VEC2"
		},
		{
			"bufferView":15,
			"componentType":5123,
			"count":1341,
			"type":"SCALAR"
		},
		{
			"bufferView":16,
			"componentType":5126,
			"count":132,
			"max":[
				0.12186597287654877,
				0.125,
				0.12186597287654877
			],
			"min":[
				-0.12186597287654877,
				0.027815118432044983,
				-0.12186598777770996
			],
			"type":"VEC3"
		},
		{
			"bufferView":17,
			"componentType":5126,
			"count":132,
			"type":"VEC3"
		},
		{
			"bufferView":18,
			"componentType":5126,
			"count":132,
			"type":"VEC2"
		},
		{
			"bufferView":19,
			"componentType":5123,
			"count":180,
			"type":"SCALAR"
		},
		{
			"bufferView":20,
			"componentType":5126,
			"count":88,
			"max":[
				0.07311958819627762,
				0.07500000298023224,
				0.07311958819627762
			],
			"min":[
				-0.07311958819627762,
				0.01668907143175602,
				-0.07311958819627762
			],
			"type":"VEC3"
		},
		{
			"bufferView":21,
			"componentType":5126,
			"count":88,
			"type":"VEC3"
		},
		{
			"bufferView":22,
			"componentType":5126,
			"count":88,
			"type":"VEC2"
		},
		{
			"bufferView":23,
			"componentType":5123,
			"count":120,
			"type":"SCALAR"
		},
		{
			"bufferView":24,
			"componentType":5126,
			"count":12,
			"max":[
				0.07500007748603821,
				-2.0802083015441895,
				-1.3583333492279053
			],
			"min":[
				0.07500007748603821,
				-2.1302084922790527,
				-1.408333420753479
			],
			"type":"VEC3"
		},
		{
			"bufferView":25,
			"componentType":5126,
			"count":12,
			"type":"VEC3"
		},
		{
			"bufferView":26,
			"componentType":5126,
			"count":12,
			"type":"VEC2"
		},
		{
			"bufferView":27,
			"componentType":5123,
			"count":30,
			"type":"SCALAR"
		},
		{
			"bufferView":28,
			"componentType":5126,
			"count":96,
			"max":[
				0.44999998807907104,
				0.03999999910593033,
				0.44999998807907104
			],
			"min":[
				-0.44999998807907104,
				-0.03999999910593033,
				-0.44999998807907104
			],
			"type":"VEC3"
		},
		{
			"bufferView":29,
			"componentType":5126,
			"count":96,
			"type":"VEC3"
		},
		{
			"bufferView":30,
			"componentType":5126,
			"count":96,
			"type":"VEC2"
		},
		{
			"bufferView":31,
			"componentType":5123,
			"count":204,
			"type":"SCALAR"
		},
		{
			"bufferView":32,
			"componentType":5126,
			"count":20,
			"max":[
				0.15000006556510925,
				-2.0652081966400146,
				-0.4877769947052002
			],
			"min":[
				6.705522537231445e-08,
				-2.1452081203460693,
				-0.9455534815788269
			],
			"type":"VEC3"
		},
		{
			"bufferView":33,
			"componentType":5126,
			"count":20,
			"type":"VEC3"
		},
		{
			"bufferView":34,
			"componentType":5126,
			"count":20,
			"type":"VEC2"
		},
		{
			"bufferView":35,
			"componentType":5123,
			"count":30,
			"type":"SCALAR"
		}
	],
	"bufferViews":[
		{
			"buffer":0,
			"byteLength":5652,
			"byteOffset":0,
			"target":34962
		},
		{
			"buffer":0,
			"byteLength":5652,
			"byteOffset":5652,
			"target":34962
		},
		{
			"buffer":0,
			"byteLength":3768,
			"byteOffset":11304,
			"target":34962
		},
		{
			"buffer":0,
			"byteLength":2124,
			"byteOffset":15072,
			"target":34963
		},
		{
			"buffer":0,
			"byteLength":4788,
			"byteOffset":17196,
			"target":34962
		},
		{
			"buffer":0,
			"byteLength":4788,
			"byteOffset":21984,
			"target":34962
		},
		{
			"buffer":0,
			"byteLength":3192,
			"byteOffset":26772,
			"target":34962
		},
		{
			"buffer":0,
			"byteLength":1242,
			"byteOffset":29964,
			"target":34963
		},
		{
			"buffer":0,
			"byteLength":48,
			"byteOffset":31208,
			"target":34962
		},
		{
			"buffer":0,
			"byteLength":48,
			"byteOffset":31256,
			"target":34962
		},
		{
			"buffer":0,
			"byteLength":32,
			"byteOffset":31304,
			"target":34962
		},
		{
			"buffer":0,
			"byteLength":12,
			"byteOffset":31336,
			"target":34963
		},
		{
			"buffer":0,
			"byteLength":5484,
			"byteOffset":31348,
			"target":34962
		},
		{
			"buffer":0,
			"byteLength":5484,
			"byteOffset":36832,
			"target":34962
		},
		{
			"buffer":0,
			"byteLength":3656,
			"byteOffset":42316,
			"target":34962
		},
		{
			"buffer":0,
			"byteLength":2682,
			"byteOffset":45972,
			"target":34963
		},
		{
			"buffer":0,
			"byteLength":1584,
			"byteOffset":48656,
			"target":34962
		},
		{
			"buffer":0,
			"byteLength":1584,
			"byteOffset":50240,
			"target":34962
		},
		{
			"buffer":0,
			"byteLength":1056,
			"byteOffset":51824,
			"target":34962
		},
		{
			"buffer":0,
			"byteLength":360,
			"byteOffset":52880,
			"target":34963
		},
		{
			"buffer":0,
			"byteLength":1056,
			"byteOffset":53240,
			"target":34962
		},
		{
			"buffer":0,
			"byteLength":1056,
			"byteOffset":54296,
			"target":34962
		},
		{
			"buffer":0,
			"byteLength":704,
			"byteOffset":55352,
			"target":34962
		},
		{
			"buffer":0,
			"byteLength":240,
			"byteOffset":56056,
			"target":34963
		},
		{
			"buffer":0,
			"byteLength":144,
			"byteOffset":56296,
			"target":34962
		},
		{
			"buffer":0,
			"byteLength":144,
			"byteOffset":56440,
			"target":34962
		},
		{
			"buffer":0,
			"byteLength":96,
			"byteOffset":56584,
			"target":34962
		},
		{
			"buffer":0,
			"byteLength":60,
			"byteOffset":56680,
			"target":34963
		},
		{
			"buffer":0,
			"byteLength":1152,
			"byteOffset":56740,
			"target":34962
		},
		{
			"buffer":0,
			"byteLength":1152,
			"byteOffset":57892,
			"target":34962
		},
		{
			"buffer":0,
			"byteLength":768,
			"byteOffset":59044,
			"target":34962
		},
		{
			"buffer":0,
			"byteLength":408,
			"byteOffset":59812,
			"target":34963
		},
		{
			"buffer":0,
			"byteLength":240,
			"byteOffset":60220,
			"target":34962
		},
		{
			"buffer":0,
			"byteLength":240,
			"byteOffset":60460,
			"target":34962
		},
		{
			"buffer":0,
			"byteLength":160,
			"byteOffset":60700,
			"target":34962
		},
		{
			"buffer":0,
			"byteLength":60,
			"byteOffset":60860,
			"target":34963
		}
	],
	"samplers":[
		{
			"magFilter":9729,
			"minFilter":9987
		}
	],
	"buffers":[
		{
			"byteLength":60920,
			"uri":"computer.bin"
		}
	]
}
